# xmcd CD database file
#
# Track frame offsets:
#	150
#	18762
#	42062
#	60800
#	78262
#	100750
#	120787
#	140212
#	163737
#	186125
#
# Disc length: 2741 seconds
#
# Revision: 0
# Processed by: cddbd v1.5PL3 Copyright (c) Steve Scherf et al.
# Submitted via: CDex 1.51
#
DISCID=6d0ab30a
DTITLE=宮崎萬純 - Cloudy Night
DYEAR=1988
DGENRE=Pop
TTITLE0=Cloudy Night
TTITLE1=愛だけ感じて
TTITLE2=放課後のスイミング
TTITLE3=黄昏色のコイン
TTITLE4=涙の聞こえた日
TTITLE5=You! All Right
TTITLE6=Blue Bird
TTITLE7=My Hometown
TTITLE8=夜間飛行
TTITLE9=Silent Blue
EXTD=YEAR: 1988
EXTT0=
EXTT1=
EXTT2=
EXTT3=
EXTT4=
EXTT5=
EXTT6=
EXTT7=
EXTT8=
EXTT9=
PLAYORDER=
